<?xml version="1.0" encoding="UTF-8" standalone="no"?>
<!DOCTYPE svg PUBLIC "-//W3C//DTD SVG 1.1//EN"
 "http://www.w3.org/Graphics/SVG/1.1/DTD/svg11.dtd">
<!-- Generated by graphviz version 2.50.0 (0)
 -->
<!-- Title: model Pages: 1 -->
<svg width="86pt" height="2506pt"
 viewBox="0.00 0.00 85.70 2506.00" xmlns="http://www.w3.org/2000/svg" xmlns:xlink="http://www.w3.org/1999/xlink">
<g id="graph0" class="graph" transform="scale(0.77 0.77) rotate(0) translate(4 3271)">
<title>model</title>
<polygon fill="white" stroke="transparent" points="-4,4 -4,-3271 108,-3271 108,4 -4,4"/>
<g id="clust1" class="cluster">
<title>cluster_2</title>
<polygon fill="none" stroke="black" stroke-dasharray="5,2" points="8,-2478 8,-2887 96,-2887 96,-2478 8,-2478"/>
<text text-anchor="middle" x="43.5" y="-2873.4" font-family="Times,serif" font-size="12.00">ConvBlock</text>
</g>
<g id="clust2" class="cluster">
<title>cluster_3</title>
<polygon fill="none" stroke="black" stroke-dasharray="5,2" points="8,-2061 8,-2470 96,-2470 96,-2061 8,-2061"/>
<text text-anchor="middle" x="43.5" y="-2456.4" font-family="Times,serif" font-size="12.00">ConvBlock</text>
</g>
<g id="clust3" class="cluster">
<title>cluster_4</title>
<polygon fill="none" stroke="black" stroke-dasharray="5,2" points="8,-1644 8,-2053 96,-2053 96,-1644 8,-1644"/>
<text text-anchor="middle" x="43.5" y="-2039.4" font-family="Times,serif" font-size="12.00">ConvBlock</text>
</g>
<g id="clust4" class="cluster">
<title>cluster_5</title>
<polygon fill="none" stroke="black" stroke-dasharray="5,2" points="8,-1167 8,-1576 96,-1576 96,-1167 8,-1167"/>
<text text-anchor="middle" x="43.5" y="-1562.4" font-family="Times,serif" font-size="12.00">ConvBlock</text>
</g>
<g id="clust5" class="cluster">
<title>cluster_6</title>
<polygon fill="none" stroke="black" stroke-dasharray="5,2" points="8,-758 8,-1031 96,-1031 96,-758 8,-758"/>
<text text-anchor="middle" x="45.5" y="-1017.4" font-family="Times,serif" font-size="12.00">DenseBlock</text>
</g>
<g id="clust6" class="cluster">
<title>cluster_7</title>
<polygon fill="none" stroke="black" stroke-dasharray="5,2" points="8,-477 8,-750 96,-750 96,-477 8,-477"/>
<text text-anchor="middle" x="45.5" y="-736.4" font-family="Times,serif" font-size="12.00">DenseBlock</text>
</g>
<g id="clust7" class="cluster">
<title>cluster_8</title>
<polygon fill="none" stroke="black" stroke-dasharray="5,2" points="8,-196 8,-469 96,-469 96,-196 8,-196"/>
<text text-anchor="middle" x="45.5" y="-455.4" font-family="Times,serif" font-size="12.00">DenseBlock</text>
</g>
<!-- 0 -->
<g id="node1" class="node">
<title>0</title>
<polygon fill="lightyellow" stroke="transparent" points="83,-3267 21,-3267 21,-3235 83,-3235 83,-3267"/>
<polygon fill="none" stroke="black" points="21,-3235 21,-3267 83,-3267 83,-3235 21,-3235"/>
<text text-anchor="start" x="26" y="-3254" font-family="Linux libertine" font-size="10.00">input&#45;tensor</text>
<text text-anchor="start" x="35.5" y="-3243" font-family="Linux libertine" font-size="10.00">depth:0</text>
</g>
<!-- 1 -->
<g id="node2" class="node">
<title>1</title>
<polygon fill="#c1ffc1" stroke="transparent" points="79,-3199 25,-3199 25,-3167 79,-3167 79,-3199"/>
<polygon fill="none" stroke="black" points="30,-3167 30,-3199 74,-3199 74,-3167 30,-3167"/>
<text text-anchor="start" x="35" y="-3186" font-family="Linux libertine" font-size="10.00">Conv2d</text>
<text text-anchor="start" x="35.5" y="-3175" font-family="Linux libertine" font-size="10.00">depth:1</text>
</g>
<!-- 0&#45;&gt;1 -->
<g id="edge1" class="edge">
<title>0&#45;&gt;1</title>
<path fill="none" stroke="black" d="M52,-3234.69C52,-3227.2 52,-3217.97 52,-3209.45"/>
<polygon fill="black" stroke="black" points="55.5,-3209.22 52,-3199.22 48.5,-3209.22 55.5,-3209.22"/>
</g>
<!-- 2 -->
<g id="node3" class="node">
<title>2</title>
<polygon fill="aliceblue" stroke="transparent" points="79,-3131 25,-3131 25,-3099 79,-3099 79,-3131"/>
<polygon fill="none" stroke="black" points="31,-3099 31,-3131 74,-3131 74,-3099 31,-3099"/>
<text text-anchor="start" x="44.5" y="-3118" font-family="Linux libertine" font-size="10.00">relu</text>
<text text-anchor="start" x="36" y="-3107" font-family="Linux libertine" font-size="10.00">depth:1</text>
</g>
<!-- 1&#45;&gt;2 -->
<g id="edge2" class="edge">
<title>1&#45;&gt;2</title>
<path fill="none" stroke="black" d="M52,-3166.69C52,-3159.2 52,-3149.97 52,-3141.45"/>
<polygon fill="black" stroke="black" points="55.5,-3141.22 52,-3131.22 48.5,-3141.22 55.5,-3141.22"/>
</g>
<!-- 3 -->
<g id="node4" class="node">
<title>3</title>
<polygon fill="#c1ffc1" stroke="transparent" points="79,-3063 25,-3063 25,-3031 79,-3031 79,-3063"/>
<polygon fill="none" stroke="black" points="30,-3031 30,-3063 74,-3063 74,-3031 30,-3031"/>
<text text-anchor="start" x="35" y="-3050" font-family="Linux libertine" font-size="10.00">Conv2d</text>
<text text-anchor="start" x="35.5" y="-3039" font-family="Linux libertine" font-size="10.00">depth:1</text>
</g>
<!-- 2&#45;&gt;3 -->
<g id="edge3" class="edge">
<title>2&#45;&gt;3</title>
<path fill="none" stroke="black" d="M52,-3098.69C52,-3091.2 52,-3081.97 52,-3073.45"/>
<polygon fill="black" stroke="black" points="55.5,-3073.22 52,-3063.22 48.5,-3073.22 55.5,-3073.22"/>
</g>
<!-- 4 -->
<g id="node5" class="node">
<title>4</title>
<polygon fill="aliceblue" stroke="transparent" points="79,-2995 25,-2995 25,-2963 79,-2963 79,-2995"/>
<polygon fill="none" stroke="black" points="31,-2963 31,-2995 74,-2995 74,-2963 31,-2963"/>
<text text-anchor="start" x="44.5" y="-2982" font-family="Linux libertine" font-size="10.00">relu</text>
<text text-anchor="start" x="36" y="-2971" font-family="Linux libertine" font-size="10.00">depth:1</text>
</g>
<!-- 3&#45;&gt;4 -->
<g id="edge4" class="edge">
<title>3&#45;&gt;4</title>
<path fill="none" stroke="black" d="M52,-3030.69C52,-3023.2 52,-3013.97 52,-3005.45"/>
<polygon fill="black" stroke="black" points="55.5,-3005.22 52,-2995.22 48.5,-3005.22 55.5,-3005.22"/>
</g>
<!-- 5 -->
<g id="node6" class="node">
<title>5</title>
<polygon fill="#c1ffc1" stroke="transparent" points="81.5,-2927 22.5,-2927 22.5,-2895 81.5,-2895 81.5,-2927"/>
<polygon fill="none" stroke="black" points="23,-2895 23,-2927 82,-2927 82,-2895 23,-2895"/>
<text text-anchor="start" x="28" y="-2914" font-family="Linux libertine" font-size="10.00">MaxPool2d</text>
<text text-anchor="start" x="36" y="-2903" font-family="Linux libertine" font-size="10.00">depth:1</text>
</g>
<!-- 4&#45;&gt;5 -->
<g id="edge5" class="edge">
<title>4&#45;&gt;5</title>
<path fill="none" stroke="black" d="M52,-2962.69C52,-2955.2 52,-2945.97 52,-2937.45"/>
<polygon fill="black" stroke="black" points="55.5,-2937.22 52,-2927.22 48.5,-2937.22 55.5,-2937.22"/>
</g>
<!-- 6 -->
<g id="node7" class="node">
<title>6</title>
<polygon fill="#c1ffc1" stroke="transparent" points="79,-2858 25,-2858 25,-2826 79,-2826 79,-2858"/>
<polygon fill="none" stroke="black" points="30,-2826 30,-2858 74,-2858 74,-2826 30,-2826"/>
<text text-anchor="start" x="35" y="-2845" font-family="Linux libertine" font-size="10.00">Conv2d</text>
<text text-anchor="start" x="35.5" y="-2834" font-family="Linux libertine" font-size="10.00">depth:2</text>
</g>
<!-- 5&#45;&gt;6 -->
<g id="edge6" class="edge">
<title>5&#45;&gt;6</title>
<path fill="none" stroke="black" d="M52,-2894.8C52,-2887 52,-2877.3 52,-2868.41"/>
<polygon fill="black" stroke="black" points="55.5,-2868.14 52,-2858.14 48.5,-2868.14 55.5,-2868.14"/>
</g>
<!-- 7 -->
<g id="node8" class="node">
<title>7</title>
<polygon fill="aliceblue" stroke="transparent" points="79,-2790 25,-2790 25,-2758 79,-2758 79,-2790"/>
<polygon fill="none" stroke="black" points="31,-2758 31,-2790 74,-2790 74,-2758 31,-2758"/>
<text text-anchor="start" x="44.5" y="-2777" font-family="Linux libertine" font-size="10.00">relu</text>
<text text-anchor="start" x="36" y="-2766" font-family="Linux libertine" font-size="10.00">depth:2</text>
</g>
<!-- 6&#45;&gt;7 -->
<g id="edge7" class="edge">
<title>6&#45;&gt;7</title>
<path fill="none" stroke="black" d="M52,-2825.69C52,-2818.2 52,-2808.97 52,-2800.45"/>
<polygon fill="black" stroke="black" points="55.5,-2800.22 52,-2790.22 48.5,-2800.22 55.5,-2800.22"/>
</g>
<!-- 8 -->
<g id="node9" class="node">
<title>8</title>
<polygon fill="#c1ffc1" stroke="transparent" points="79,-2722 25,-2722 25,-2690 79,-2690 79,-2722"/>
<polygon fill="none" stroke="black" points="30,-2690 30,-2722 74,-2722 74,-2690 30,-2690"/>
<text text-anchor="start" x="35" y="-2709" font-family="Linux libertine" font-size="10.00">Conv2d</text>
<text text-anchor="start" x="35.5" y="-2698" font-family="Linux libertine" font-size="10.00">depth:2</text>
</g>
<!-- 7&#45;&gt;8 -->
<g id="edge8" class="edge">
<title>7&#45;&gt;8</title>
<path fill="none" stroke="black" d="M52,-2757.69C52,-2750.2 52,-2740.97 52,-2732.45"/>
<polygon fill="black" stroke="black" points="55.5,-2732.22 52,-2722.22 48.5,-2732.22 55.5,-2732.22"/>
</g>
<!-- 9 -->
<g id="node10" class="node">
<title>9</title>
<polygon fill="aliceblue" stroke="transparent" points="79,-2654 25,-2654 25,-2622 79,-2622 79,-2654"/>
<polygon fill="none" stroke="black" points="31,-2622 31,-2654 74,-2654 74,-2622 31,-2622"/>
<text text-anchor="start" x="44.5" y="-2641" font-family="Linux libertine" font-size="10.00">relu</text>
<text text-anchor="start" x="36" y="-2630" font-family="Linux libertine" font-size="10.00">depth:2</text>
</g>
<!-- 8&#45;&gt;9 -->
<g id="edge9" class="edge">
<title>8&#45;&gt;9</title>
<path fill="none" stroke="black" d="M52,-2689.69C52,-2682.2 52,-2672.97 52,-2664.45"/>
<polygon fill="black" stroke="black" points="55.5,-2664.22 52,-2654.22 48.5,-2664.22 55.5,-2664.22"/>
</g>
<!-- 10 -->
<g id="node11" class="node">
<title>10</title>
<polygon fill="#c1ffc1" stroke="transparent" points="87.5,-2586 16.5,-2586 16.5,-2554 87.5,-2554 87.5,-2586"/>
<polygon fill="none" stroke="black" points="17,-2554 17,-2586 88,-2586 88,-2554 17,-2554"/>
<text text-anchor="start" x="22" y="-2573" font-family="Linux libertine" font-size="10.00">BatchNorm2d</text>
<text text-anchor="start" x="36" y="-2562" font-family="Linux libertine" font-size="10.00">depth:2</text>
</g>
<!-- 9&#45;&gt;10 -->
<g id="edge10" class="edge">
<title>9&#45;&gt;10</title>
<path fill="none" stroke="black" d="M52,-2621.69C52,-2614.2 52,-2604.97 52,-2596.45"/>
<polygon fill="black" stroke="black" points="55.5,-2596.22 52,-2586.22 48.5,-2596.22 55.5,-2596.22"/>
</g>
<!-- 11 -->
<g id="node12" class="node">
<title>11</title>
<polygon fill="#c1ffc1" stroke="transparent" points="81.5,-2518 22.5,-2518 22.5,-2486 81.5,-2486 81.5,-2518"/>
<polygon fill="none" stroke="black" points="23,-2486 23,-2518 82,-2518 82,-2486 23,-2486"/>
<text text-anchor="start" x="28" y="-2505" font-family="Linux libertine" font-size="10.00">MaxPool2d</text>
<text text-anchor="start" x="36" y="-2494" font-family="Linux libertine" font-size="10.00">depth:2</text>
</g>
<!-- 10&#45;&gt;11 -->
<g id="edge11" class="edge">
<title>10&#45;&gt;11</title>
<path fill="none" stroke="black" d="M52,-2553.69C52,-2546.2 52,-2536.97 52,-2528.45"/>
<polygon fill="black" stroke="black" points="55.5,-2528.22 52,-2518.22 48.5,-2528.22 55.5,-2528.22"/>
</g>
<!-- 12 -->
<g id="node13" class="node">
<title>12</title>
<polygon fill="#c1ffc1" stroke="transparent" points="79,-2441 25,-2441 25,-2409 79,-2409 79,-2441"/>
<polygon fill="none" stroke="black" points="30,-2409 30,-2441 74,-2441 74,-2409 30,-2409"/>
<text text-anchor="start" x="35" y="-2428" font-family="Linux libertine" font-size="10.00">Conv2d</text>
<text text-anchor="start" x="35.5" y="-2417" font-family="Linux libertine" font-size="10.00">depth:2</text>
</g>
<!-- 11&#45;&gt;12 -->
<g id="edge12" class="edge">
<title>11&#45;&gt;12</title>
<path fill="none" stroke="black" d="M52,-2485.82C52,-2475.96 52,-2462.86 52,-2451.44"/>
<polygon fill="black" stroke="black" points="55.5,-2451.15 52,-2441.15 48.5,-2451.15 55.5,-2451.15"/>
</g>
<!-- 13 -->
<g id="node14" class="node">
<title>13</title>
<polygon fill="aliceblue" stroke="transparent" points="79,-2373 25,-2373 25,-2341 79,-2341 79,-2373"/>
<polygon fill="none" stroke="black" points="31,-2341 31,-2373 74,-2373 74,-2341 31,-2341"/>
<text text-anchor="start" x="44.5" y="-2360" font-family="Linux libertine" font-size="10.00">relu</text>
<text text-anchor="start" x="36" y="-2349" font-family="Linux libertine" font-size="10.00">depth:2</text>
</g>
<!-- 12&#45;&gt;13 -->
<g id="edge13" class="edge">
<title>12&#45;&gt;13</title>
<path fill="none" stroke="black" d="M52,-2408.69C52,-2401.2 52,-2391.97 52,-2383.45"/>
<polygon fill="black" stroke="black" points="55.5,-2383.22 52,-2373.22 48.5,-2383.22 55.5,-2383.22"/>
</g>
<!-- 14 -->
<g id="node15" class="node">
<title>14</title>
<polygon fill="#c1ffc1" stroke="transparent" points="79,-2305 25,-2305 25,-2273 79,-2273 79,-2305"/>
<polygon fill="none" stroke="black" points="30,-2273 30,-2305 74,-2305 74,-2273 30,-2273"/>
<text text-anchor="start" x="35" y="-2292" font-family="Linux libertine" font-size="10.00">Conv2d</text>
<text text-anchor="start" x="35.5" y="-2281" font-family="Linux libertine" font-size="10.00">depth:2</text>
</g>
<!-- 13&#45;&gt;14 -->
<g id="edge14" class="edge">
<title>13&#45;&gt;14</title>
<path fill="none" stroke="black" d="M52,-2340.69C52,-2333.2 52,-2323.97 52,-2315.45"/>
<polygon fill="black" stroke="black" points="55.5,-2315.22 52,-2305.22 48.5,-2315.22 55.5,-2315.22"/>
</g>
<!-- 15 -->
<g id="node16" class="node">
<title>15</title>
<polygon fill="aliceblue" stroke="transparent" points="79,-2237 25,-2237 25,-2205 79,-2205 79,-2237"/>
<polygon fill="none" stroke="black" points="31,-2205 31,-2237 74,-2237 74,-2205 31,-2205"/>
<text text-anchor="start" x="44.5" y="-2224" font-family="Linux libertine" font-size="10.00">relu</text>
<text text-anchor="start" x="36" y="-2213" font-family="Linux libertine" font-size="10.00">depth:2</text>
</g>
<!-- 14&#45;&gt;15 -->
<g id="edge15" class="edge">
<title>14&#45;&gt;15</title>
<path fill="none" stroke="black" d="M52,-2272.69C52,-2265.2 52,-2255.97 52,-2247.45"/>
<polygon fill="black" stroke="black" points="55.5,-2247.22 52,-2237.22 48.5,-2247.22 55.5,-2247.22"/>
</g>
<!-- 16 -->
<g id="node17" class="node">
<title>16</title>
<polygon fill="#c1ffc1" stroke="transparent" points="87.5,-2169 16.5,-2169 16.5,-2137 87.5,-2137 87.5,-2169"/>
<polygon fill="none" stroke="black" points="17,-2137 17,-2169 88,-2169 88,-2137 17,-2137"/>
<text text-anchor="start" x="22" y="-2156" font-family="Linux libertine" font-size="10.00">BatchNorm2d</text>
<text text-anchor="start" x="36" y="-2145" font-family="Linux libertine" font-size="10.00">depth:2</text>
</g>
<!-- 15&#45;&gt;16 -->
<g id="edge16" class="edge">
<title>15&#45;&gt;16</title>
<path fill="none" stroke="black" d="M52,-2204.69C52,-2197.2 52,-2187.97 52,-2179.45"/>
<polygon fill="black" stroke="black" points="55.5,-2179.22 52,-2169.22 48.5,-2179.22 55.5,-2179.22"/>
</g>
<!-- 17 -->
<g id="node18" class="node">
<title>17</title>
<polygon fill="#c1ffc1" stroke="transparent" points="81.5,-2101 22.5,-2101 22.5,-2069 81.5,-2069 81.5,-2101"/>
<polygon fill="none" stroke="black" points="23,-2069 23,-2101 82,-2101 82,-2069 23,-2069"/>
<text text-anchor="start" x="28" y="-2088" font-family="Linux libertine" font-size="10.00">MaxPool2d</text>
<text text-anchor="start" x="36" y="-2077" font-family="Linux libertine" font-size="10.00">depth:2</text>
</g>
<!-- 16&#45;&gt;17 -->
<g id="edge17" class="edge">
<title>16&#45;&gt;17</title>
<path fill="none" stroke="black" d="M52,-2136.69C52,-2129.2 52,-2119.97 52,-2111.45"/>
<polygon fill="black" stroke="black" points="55.5,-2111.22 52,-2101.22 48.5,-2111.22 55.5,-2111.22"/>
</g>
<!-- 18 -->
<g id="node19" class="node">
<title>18</title>
<polygon fill="#c1ffc1" stroke="transparent" points="79,-2024 25,-2024 25,-1992 79,-1992 79,-2024"/>
<polygon fill="none" stroke="black" points="30,-1992 30,-2024 74,-2024 74,-1992 30,-1992"/>
<text text-anchor="start" x="35" y="-2011" font-family="Linux libertine" font-size="10.00">Conv2d</text>
<text text-anchor="start" x="35.5" y="-2000" font-family="Linux libertine" font-size="10.00">depth:2</text>
</g>
<!-- 17&#45;&gt;18 -->
<g id="edge18" class="edge">
<title>17&#45;&gt;18</title>
<path fill="none" stroke="black" d="M52,-2068.82C52,-2058.96 52,-2045.86 52,-2034.44"/>
<polygon fill="black" stroke="black" points="55.5,-2034.15 52,-2024.15 48.5,-2034.15 55.5,-2034.15"/>
</g>
<!-- 19 -->
<g id="node20" class="node">
<title>19</title>
<polygon fill="aliceblue" stroke="transparent" points="79,-1956 25,-1956 25,-1924 79,-1924 79,-1956"/>
<polygon fill="none" stroke="black" points="31,-1924 31,-1956 74,-1956 74,-1924 31,-1924"/>
<text text-anchor="start" x="44.5" y="-1943" font-family="Linux libertine" font-size="10.00">relu</text>
<text text-anchor="start" x="36" y="-1932" font-family="Linux libertine" font-size="10.00">depth:2</text>
</g>
<!-- 18&#45;&gt;19 -->
<g id="edge19" class="edge">
<title>18&#45;&gt;19</title>
<path fill="none" stroke="black" d="M52,-1991.69C52,-1984.2 52,-1974.97 52,-1966.45"/>
<polygon fill="black" stroke="black" points="55.5,-1966.22 52,-1956.22 48.5,-1966.22 55.5,-1966.22"/>
</g>
<!-- 20 -->
<g id="node21" class="node">
<title>20</title>
<polygon fill="#c1ffc1" stroke="transparent" points="79,-1888 25,-1888 25,-1856 79,-1856 79,-1888"/>
<polygon fill="none" stroke="black" points="30,-1856 30,-1888 74,-1888 74,-1856 30,-1856"/>
<text text-anchor="start" x="35" y="-1875" font-family="Linux libertine" font-size="10.00">Conv2d</text>
<text text-anchor="start" x="35.5" y="-1864" font-family="Linux libertine" font-size="10.00">depth:2</text>
</g>
<!-- 19&#45;&gt;20 -->
<g id="edge20" class="edge">
<title>19&#45;&gt;20</title>
<path fill="none" stroke="black" d="M52,-1923.69C52,-1916.2 52,-1906.97 52,-1898.45"/>
<polygon fill="black" stroke="black" points="55.5,-1898.22 52,-1888.22 48.5,-1898.22 55.5,-1898.22"/>
</g>
<!-- 21 -->
<g id="node22" class="node">
<title>21</title>
<polygon fill="aliceblue" stroke="transparent" points="79,-1820 25,-1820 25,-1788 79,-1788 79,-1820"/>
<polygon fill="none" stroke="black" points="31,-1788 31,-1820 74,-1820 74,-1788 31,-1788"/>
<text text-anchor="start" x="44.5" y="-1807" font-family="Linux libertine" font-size="10.00">relu</text>
<text text-anchor="start" x="36" y="-1796" font-family="Linux libertine" font-size="10.00">depth:2</text>
</g>
<!-- 20&#45;&gt;21 -->
<g id="edge21" class="edge">
<title>20&#45;&gt;21</title>
<path fill="none" stroke="black" d="M52,-1855.69C52,-1848.2 52,-1838.97 52,-1830.45"/>
<polygon fill="black" stroke="black" points="55.5,-1830.22 52,-1820.22 48.5,-1830.22 55.5,-1830.22"/>
</g>
<!-- 22 -->
<g id="node23" class="node">
<title>22</title>
<polygon fill="#c1ffc1" stroke="transparent" points="87.5,-1752 16.5,-1752 16.5,-1720 87.5,-1720 87.5,-1752"/>
<polygon fill="none" stroke="black" points="17,-1720 17,-1752 88,-1752 88,-1720 17,-1720"/>
<text text-anchor="start" x="22" y="-1739" font-family="Linux libertine" font-size="10.00">BatchNorm2d</text>
<text text-anchor="start" x="36" y="-1728" font-family="Linux libertine" font-size="10.00">depth:2</text>
</g>
<!-- 21&#45;&gt;22 -->
<g id="edge22" class="edge">
<title>21&#45;&gt;22</title>
<path fill="none" stroke="black" d="M52,-1787.69C52,-1780.2 52,-1770.97 52,-1762.45"/>
<polygon fill="black" stroke="black" points="55.5,-1762.22 52,-1752.22 48.5,-1762.22 55.5,-1762.22"/>
</g>
<!-- 23 -->
<g id="node24" class="node">
<title>23</title>
<polygon fill="#c1ffc1" stroke="transparent" points="81.5,-1684 22.5,-1684 22.5,-1652 81.5,-1652 81.5,-1684"/>
<polygon fill="none" stroke="black" points="23,-1652 23,-1684 82,-1684 82,-1652 23,-1652"/>
<text text-anchor="start" x="28" y="-1671" font-family="Linux libertine" font-size="10.00">MaxPool2d</text>
<text text-anchor="start" x="36" y="-1660" font-family="Linux libertine" font-size="10.00">depth:2</text>
</g>
<!-- 22&#45;&gt;23 -->
<g id="edge23" class="edge">
<title>22&#45;&gt;23</title>
<path fill="none" stroke="black" d="M52,-1719.69C52,-1712.2 52,-1702.97 52,-1694.45"/>
<polygon fill="black" stroke="black" points="55.5,-1694.22 52,-1684.22 48.5,-1694.22 55.5,-1694.22"/>
</g>
<!-- 24 -->
<g id="node25" class="node">
<title>24</title>
<polygon fill="#c1ffc1" stroke="transparent" points="79,-1616 25,-1616 25,-1584 79,-1584 79,-1616"/>
<polygon fill="none" stroke="black" points="30,-1584 30,-1616 75,-1616 75,-1584 30,-1584"/>
<text text-anchor="start" x="35" y="-1603" font-family="Linux libertine" font-size="10.00">Dropout</text>
<text text-anchor="start" x="36" y="-1592" font-family="Linux libertine" font-size="10.00">depth:1</text>
</g>
<!-- 23&#45;&gt;24 -->
<g id="edge24" class="edge">
<title>23&#45;&gt;24</title>
<path fill="none" stroke="black" d="M52,-1651.69C52,-1644.2 52,-1634.97 52,-1626.45"/>
<polygon fill="black" stroke="black" points="55.5,-1626.22 52,-1616.22 48.5,-1626.22 55.5,-1626.22"/>
</g>
<!-- 25 -->
<g id="node26" class="node">
<title>25</title>
<polygon fill="#c1ffc1" stroke="transparent" points="79,-1547 25,-1547 25,-1515 79,-1515 79,-1547"/>
<polygon fill="none" stroke="black" points="30,-1515 30,-1547 74,-1547 74,-1515 30,-1515"/>
<text text-anchor="start" x="35" y="-1534" font-family="Linux libertine" font-size="10.00">Conv2d</text>
<text text-anchor="start" x="35.5" y="-1523" font-family="Linux libertine" font-size="10.00">depth:2</text>
</g>
<!-- 24&#45;&gt;25 -->
<g id="edge25" class="edge">
<title>24&#45;&gt;25</title>
<path fill="none" stroke="black" d="M52,-1583.8C52,-1576 52,-1566.3 52,-1557.41"/>
<polygon fill="black" stroke="black" points="55.5,-1557.14 52,-1547.14 48.5,-1557.14 55.5,-1557.14"/>
</g>
<!-- 26 -->
<g id="node27" class="node">
<title>26</title>
<polygon fill="aliceblue" stroke="transparent" points="79,-1479 25,-1479 25,-1447 79,-1447 79,-1479"/>
<polygon fill="none" stroke="black" points="31,-1447 31,-1479 74,-1479 74,-1447 31,-1447"/>
<text text-anchor="start" x="44.5" y="-1466" font-family="Linux libertine" font-size="10.00">relu</text>
<text text-anchor="start" x="36" y="-1455" font-family="Linux libertine" font-size="10.00">depth:2</text>
</g>
<!-- 25&#45;&gt;26 -->
<g id="edge26" class="edge">
<title>25&#45;&gt;26</title>
<path fill="none" stroke="black" d="M52,-1514.69C52,-1507.2 52,-1497.97 52,-1489.45"/>
<polygon fill="black" stroke="black" points="55.5,-1489.22 52,-1479.22 48.5,-1489.22 55.5,-1489.22"/>
</g>
<!-- 27 -->
<g id="node28" class="node">
<title>27</title>
<polygon fill="#c1ffc1" stroke="transparent" points="79,-1411 25,-1411 25,-1379 79,-1379 79,-1411"/>
<polygon fill="none" stroke="black" points="30,-1379 30,-1411 74,-1411 74,-1379 30,-1379"/>
<text text-anchor="start" x="35" y="-1398" font-family="Linux libertine" font-size="10.00">Conv2d</text>
<text text-anchor="start" x="35.5" y="-1387" font-family="Linux libertine" font-size="10.00">depth:2</text>
</g>
<!-- 26&#45;&gt;27 -->
<g id="edge27" class="edge">
<title>26&#45;&gt;27</title>
<path fill="none" stroke="black" d="M52,-1446.69C52,-1439.2 52,-1429.97 52,-1421.45"/>
<polygon fill="black" stroke="black" points="55.5,-1421.22 52,-1411.22 48.5,-1421.22 55.5,-1421.22"/>
</g>
<!-- 28 -->
<g id="node29" class="node">
<title>28</title>
<polygon fill="aliceblue" stroke="transparent" points="79,-1343 25,-1343 25,-1311 79,-1311 79,-1343"/>
<polygon fill="none" stroke="black" points="31,-1311 31,-1343 74,-1343 74,-1311 31,-1311"/>
<text text-anchor="start" x="44.5" y="-1330" font-family="Linux libertine" font-size="10.00">relu</text>
<text text-anchor="start" x="36" y="-1319" font-family="Linux libertine" font-size="10.00">depth:2</text>
</g>
<!-- 27&#45;&gt;28 -->
<g id="edge28" class="edge">
<title>27&#45;&gt;28</title>
<path fill="none" stroke="black" d="M52,-1378.69C52,-1371.2 52,-1361.97 52,-1353.45"/>
<polygon fill="black" stroke="black" points="55.5,-1353.22 52,-1343.22 48.5,-1353.22 55.5,-1353.22"/>
</g>
<!-- 29 -->
<g id="node30" class="node">
<title>29</title>
<polygon fill="#c1ffc1" stroke="transparent" points="87.5,-1275 16.5,-1275 16.5,-1243 87.5,-1243 87.5,-1275"/>
<polygon fill="none" stroke="black" points="17,-1243 17,-1275 88,-1275 88,-1243 17,-1243"/>
<text text-anchor="start" x="22" y="-1262" font-family="Linux libertine" font-size="10.00">BatchNorm2d</text>
<text text-anchor="start" x="36" y="-1251" font-family="Linux libertine" font-size="10.00">depth:2</text>
</g>
<!-- 28&#45;&gt;29 -->
<g id="edge29" class="edge">
<title>28&#45;&gt;29</title>
<path fill="none" stroke="black" d="M52,-1310.69C52,-1303.2 52,-1293.97 52,-1285.45"/>
<polygon fill="black" stroke="black" points="55.5,-1285.22 52,-1275.22 48.5,-1285.22 55.5,-1285.22"/>
</g>
<!-- 30 -->
<g id="node31" class="node">
<title>30</title>
<polygon fill="#c1ffc1" stroke="transparent" points="81.5,-1207 22.5,-1207 22.5,-1175 81.5,-1175 81.5,-1207"/>
<polygon fill="none" stroke="black" points="23,-1175 23,-1207 82,-1207 82,-1175 23,-1175"/>
<text text-anchor="start" x="28" y="-1194" font-family="Linux libertine" font-size="10.00">MaxPool2d</text>
<text text-anchor="start" x="36" y="-1183" font-family="Linux libertine" font-size="10.00">depth:2</text>
</g>
<!-- 29&#45;&gt;30 -->
<g id="edge30" class="edge">
<title>29&#45;&gt;30</title>
<path fill="none" stroke="black" d="M52,-1242.69C52,-1235.2 52,-1225.97 52,-1217.45"/>
<polygon fill="black" stroke="black" points="55.5,-1217.22 52,-1207.22 48.5,-1217.22 55.5,-1217.22"/>
</g>
<!-- 31 -->
<g id="node32" class="node">
<title>31</title>
<polygon fill="#c1ffc1" stroke="transparent" points="79,-1139 25,-1139 25,-1107 79,-1107 79,-1139"/>
<polygon fill="none" stroke="black" points="30,-1107 30,-1139 75,-1139 75,-1107 30,-1107"/>
<text text-anchor="start" x="35" y="-1126" font-family="Linux libertine" font-size="10.00">Dropout</text>
<text text-anchor="start" x="36" y="-1115" font-family="Linux libertine" font-size="10.00">depth:1</text>
</g>
<!-- 30&#45;&gt;31 -->
<g id="edge31" class="edge">
<title>30&#45;&gt;31</title>
<path fill="none" stroke="black" d="M52,-1174.69C52,-1167.2 52,-1157.97 52,-1149.45"/>
<polygon fill="black" stroke="black" points="55.5,-1149.22 52,-1139.22 48.5,-1149.22 55.5,-1149.22"/>
</g>
<!-- 32 -->
<g id="node33" class="node">
<title>32</title>
<polygon fill="#c1ffc1" stroke="transparent" points="79,-1071 25,-1071 25,-1039 79,-1039 79,-1071"/>
<polygon fill="none" stroke="black" points="31,-1039 31,-1071 74,-1071 74,-1039 31,-1039"/>
<text text-anchor="start" x="37" y="-1058" font-family="Linux libertine" font-size="10.00">Flatten</text>
<text text-anchor="start" x="36" y="-1047" font-family="Linux libertine" font-size="10.00">depth:1</text>
</g>
<!-- 31&#45;&gt;32 -->
<g id="edge32" class="edge">
<title>31&#45;&gt;32</title>
<path fill="none" stroke="black" d="M52,-1106.69C52,-1099.2 52,-1089.97 52,-1081.45"/>
<polygon fill="black" stroke="black" points="55.5,-1081.22 52,-1071.22 48.5,-1081.22 55.5,-1081.22"/>
</g>
<!-- 33 -->
<g id="node34" class="node">
<title>33</title>
<polygon fill="#c1ffc1" stroke="transparent" points="79,-1002 25,-1002 25,-970 79,-970 79,-1002"/>
<polygon fill="none" stroke="black" points="31,-970 31,-1002 74,-1002 74,-970 31,-970"/>
<text text-anchor="start" x="39" y="-989" font-family="Linux libertine" font-size="10.00">Linear</text>
<text text-anchor="start" x="36" y="-978" font-family="Linux libertine" font-size="10.00">depth:2</text>
</g>
<!-- 32&#45;&gt;33 -->
<g id="edge33" class="edge">
<title>32&#45;&gt;33</title>
<path fill="none" stroke="black" d="M52,-1038.8C52,-1031 52,-1021.3 52,-1012.41"/>
<polygon fill="black" stroke="black" points="55.5,-1012.14 52,-1002.14 48.5,-1012.14 55.5,-1012.14"/>
</g>
<!-- 34 -->
<g id="node35" class="node">
<title>34</title>
<polygon fill="aliceblue" stroke="transparent" points="79,-934 25,-934 25,-902 79,-902 79,-934"/>
<polygon fill="none" stroke="black" points="31,-902 31,-934 74,-934 74,-902 31,-902"/>
<text text-anchor="start" x="44.5" y="-921" font-family="Linux libertine" font-size="10.00">relu</text>
<text text-anchor="start" x="36" y="-910" font-family="Linux libertine" font-size="10.00">depth:2</text>
</g>
<!-- 33&#45;&gt;34 -->
<g id="edge34" class="edge">
<title>33&#45;&gt;34</title>
<path fill="none" stroke="black" d="M52,-969.69C52,-962.2 52,-952.97 52,-944.45"/>
<polygon fill="black" stroke="black" points="55.5,-944.22 52,-934.22 48.5,-944.22 55.5,-944.22"/>
</g>
<!-- 35 -->
<g id="node36" class="node">
<title>35</title>
<polygon fill="#c1ffc1" stroke="transparent" points="87.5,-866 16.5,-866 16.5,-834 87.5,-834 87.5,-866"/>
<polygon fill="none" stroke="black" points="17,-834 17,-866 88,-866 88,-834 17,-834"/>
<text text-anchor="start" x="22" y="-853" font-family="Linux libertine" font-size="10.00">BatchNorm1d</text>
<text text-anchor="start" x="36" y="-842" font-family="Linux libertine" font-size="10.00">depth:2</text>
</g>
<!-- 34&#45;&gt;35 -->
<g id="edge35" class="edge">
<title>34&#45;&gt;35</title>
<path fill="none" stroke="black" d="M52,-901.69C52,-894.2 52,-884.97 52,-876.45"/>
<polygon fill="black" stroke="black" points="55.5,-876.22 52,-866.22 48.5,-876.22 55.5,-876.22"/>
</g>
<!-- 36 -->
<g id="node37" class="node">
<title>36</title>
<polygon fill="#c1ffc1" stroke="transparent" points="79,-798 25,-798 25,-766 79,-766 79,-798"/>
<polygon fill="none" stroke="black" points="30,-766 30,-798 75,-798 75,-766 30,-766"/>
<text text-anchor="start" x="35" y="-785" font-family="Linux libertine" font-size="10.00">Dropout</text>
<text text-anchor="start" x="36" y="-774" font-family="Linux libertine" font-size="10.00">depth:2</text>
</g>
<!-- 35&#45;&gt;36 -->
<g id="edge36" class="edge">
<title>35&#45;&gt;36</title>
<path fill="none" stroke="black" d="M52,-833.69C52,-826.2 52,-816.97 52,-808.45"/>
<polygon fill="black" stroke="black" points="55.5,-808.22 52,-798.22 48.5,-808.22 55.5,-808.22"/>
</g>
<!-- 37 -->
<g id="node38" class="node">
<title>37</title>
<polygon fill="#c1ffc1" stroke="transparent" points="79,-721 25,-721 25,-689 79,-689 79,-721"/>
<polygon fill="none" stroke="black" points="31,-689 31,-721 74,-721 74,-689 31,-689"/>
<text text-anchor="start" x="39" y="-708" font-family="Linux libertine" font-size="10.00">Linear</text>
<text text-anchor="start" x="36" y="-697" font-family="Linux libertine" font-size="10.00">depth:2</text>
</g>
<!-- 36&#45;&gt;37 -->
<g id="edge37" class="edge">
<title>36&#45;&gt;37</title>
<path fill="none" stroke="black" d="M52,-765.82C52,-755.96 52,-742.86 52,-731.44"/>
<polygon fill="black" stroke="black" points="55.5,-731.15 52,-721.15 48.5,-731.15 55.5,-731.15"/>
</g>
<!-- 38 -->
<g id="node39" class="node">
<title>38</title>
<polygon fill="aliceblue" stroke="transparent" points="79,-653 25,-653 25,-621 79,-621 79,-653"/>
<polygon fill="none" stroke="black" points="31,-621 31,-653 74,-653 74,-621 31,-621"/>
<text text-anchor="start" x="44.5" y="-640" font-family="Linux libertine" font-size="10.00">relu</text>
<text text-anchor="start" x="36" y="-629" font-family="Linux libertine" font-size="10.00">depth:2</text>
</g>
<!-- 37&#45;&gt;38 -->
<g id="edge38" class="edge">
<title>37&#45;&gt;38</title>
<path fill="none" stroke="black" d="M52,-688.69C52,-681.2 52,-671.97 52,-663.45"/>
<polygon fill="black" stroke="black" points="55.5,-663.22 52,-653.22 48.5,-663.22 55.5,-663.22"/>
</g>
<!-- 39 -->
<g id="node40" class="node">
<title>39</title>
<polygon fill="#c1ffc1" stroke="transparent" points="87.5,-585 16.5,-585 16.5,-553 87.5,-553 87.5,-585"/>
<polygon fill="none" stroke="black" points="17,-553 17,-585 88,-585 88,-553 17,-553"/>
<text text-anchor="start" x="22" y="-572" font-family="Linux libertine" font-size="10.00">BatchNorm1d</text>
<text text-anchor="start" x="36" y="-561" font-family="Linux libertine" font-size="10.00">depth:2</text>
</g>
<!-- 38&#45;&gt;39 -->
<g id="edge39" class="edge">
<title>38&#45;&gt;39</title>
<path fill="none" stroke="black" d="M52,-620.69C52,-613.2 52,-603.97 52,-595.45"/>
<polygon fill="black" stroke="black" points="55.5,-595.22 52,-585.22 48.5,-595.22 55.5,-595.22"/>
</g>
<!-- 40 -->
<g id="node41" class="node">
<title>40</title>
<polygon fill="#c1ffc1" stroke="transparent" points="79,-517 25,-517 25,-485 79,-485 79,-517"/>
<polygon fill="none" stroke="black" points="30,-485 30,-517 75,-517 75,-485 30,-485"/>
<text text-anchor="start" x="35" y="-504" font-family="Linux libertine" font-size="10.00">Dropout</text>
<text text-anchor="start" x="36" y="-493" font-family="Linux libertine" font-size="10.00">depth:2</text>
</g>
<!-- 39&#45;&gt;40 -->
<g id="edge40" class="edge">
<title>39&#45;&gt;40</title>
<path fill="none" stroke="black" d="M52,-552.69C52,-545.2 52,-535.97 52,-527.45"/>
<polygon fill="black" stroke="black" points="55.5,-527.22 52,-517.22 48.5,-527.22 55.5,-527.22"/>
</g>
<!-- 41 -->
<g id="node42" class="node">
<title>41</title>
<polygon fill="#c1ffc1" stroke="transparent" points="79,-440 25,-440 25,-408 79,-408 79,-440"/>
<polygon fill="none" stroke="black" points="31,-408 31,-440 74,-440 74,-408 31,-408"/>
<text text-anchor="start" x="39" y="-427" font-family="Linux libertine" font-size="10.00">Linear</text>
<text text-anchor="start" x="36" y="-416" font-family="Linux libertine" font-size="10.00">depth:2</text>
</g>
<!-- 40&#45;&gt;41 -->
<g id="edge41" class="edge">
<title>40&#45;&gt;41</title>
<path fill="none" stroke="black" d="M52,-484.82C52,-474.96 52,-461.86 52,-450.44"/>
<polygon fill="black" stroke="black" points="55.5,-450.15 52,-440.15 48.5,-450.15 55.5,-450.15"/>
</g>
<!-- 42 -->
<g id="node43" class="node">
<title>42</title>
<polygon fill="aliceblue" stroke="transparent" points="79,-372 25,-372 25,-340 79,-340 79,-372"/>
<polygon fill="none" stroke="black" points="31,-340 31,-372 74,-372 74,-340 31,-340"/>
<text text-anchor="start" x="44.5" y="-359" font-family="Linux libertine" font-size="10.00">relu</text>
<text text-anchor="start" x="36" y="-348" font-family="Linux libertine" font-size="10.00">depth:2</text>
</g>
<!-- 41&#45;&gt;42 -->
<g id="edge42" class="edge">
<title>41&#45;&gt;42</title>
<path fill="none" stroke="black" d="M52,-407.69C52,-400.2 52,-390.97 52,-382.45"/>
<polygon fill="black" stroke="black" points="55.5,-382.22 52,-372.22 48.5,-382.22 55.5,-382.22"/>
</g>
<!-- 43 -->
<g id="node44" class="node">
<title>43</title>
<polygon fill="#c1ffc1" stroke="transparent" points="87.5,-304 16.5,-304 16.5,-272 87.5,-272 87.5,-304"/>
<polygon fill="none" stroke="black" points="17,-272 17,-304 88,-304 88,-272 17,-272"/>
<text text-anchor="start" x="22" y="-291" font-family="Linux libertine" font-size="10.00">BatchNorm1d</text>
<text text-anchor="start" x="36" y="-280" font-family="Linux libertine" font-size="10.00">depth:2</text>
</g>
<!-- 42&#45;&gt;43 -->
<g id="edge43" class="edge">
<title>42&#45;&gt;43</title>
<path fill="none" stroke="black" d="M52,-339.69C52,-332.2 52,-322.97 52,-314.45"/>
<polygon fill="black" stroke="black" points="55.5,-314.22 52,-304.22 48.5,-314.22 55.5,-314.22"/>
</g>
<!-- 44 -->
<g id="node45" class="node">
<title>44</title>
<polygon fill="#c1ffc1" stroke="transparent" points="79,-236 25,-236 25,-204 79,-204 79,-236"/>
<polygon fill="none" stroke="black" points="30,-204 30,-236 75,-236 75,-204 30,-204"/>
<text text-anchor="start" x="35" y="-223" font-family="Linux libertine" font-size="10.00">Dropout</text>
<text text-anchor="start" x="36" y="-212" font-family="Linux libertine" font-size="10.00">depth:2</text>
</g>
<!-- 43&#45;&gt;44 -->
<g id="edge44" class="edge">
<title>43&#45;&gt;44</title>
<path fill="none" stroke="black" d="M52,-271.69C52,-264.2 52,-254.97 52,-246.45"/>
<polygon fill="black" stroke="black" points="55.5,-246.22 52,-236.22 48.5,-246.22 55.5,-246.22"/>
</g>
<!-- 45 -->
<g id="node46" class="node">
<title>45</title>
<polygon fill="#c1ffc1" stroke="transparent" points="79,-168 25,-168 25,-136 79,-136 79,-168"/>
<polygon fill="none" stroke="black" points="31,-136 31,-168 74,-168 74,-136 31,-136"/>
<text text-anchor="start" x="39" y="-155" font-family="Linux libertine" font-size="10.00">Linear</text>
<text text-anchor="start" x="36" y="-144" font-family="Linux libertine" font-size="10.00">depth:1</text>
</g>
<!-- 44&#45;&gt;45 -->
<g id="edge45" class="edge">
<title>44&#45;&gt;45</title>
<path fill="none" stroke="black" d="M52,-203.69C52,-196.2 52,-186.97 52,-178.45"/>
<polygon fill="black" stroke="black" points="55.5,-178.22 52,-168.22 48.5,-178.22 55.5,-178.22"/>
</g>
<!-- 46 -->
<g id="node47" class="node">
<title>46</title>
<polygon fill="aliceblue" stroke="transparent" points="79,-100 25,-100 25,-68 79,-68 79,-100"/>
<polygon fill="none" stroke="black" points="29,-68 29,-100 75,-100 75,-68 29,-68"/>
<text text-anchor="start" x="34" y="-87" font-family="Linux libertine" font-size="10.00">softmax</text>
<text text-anchor="start" x="35.5" y="-76" font-family="Linux libertine" font-size="10.00">depth:1</text>
</g>
<!-- 45&#45;&gt;46 -->
<g id="edge46" class="edge">
<title>45&#45;&gt;46</title>
<path fill="none" stroke="black" d="M52,-135.69C52,-128.2 52,-118.97 52,-110.45"/>
<polygon fill="black" stroke="black" points="55.5,-110.22 52,-100.22 48.5,-110.22 55.5,-110.22"/>
</g>
<!-- 47 -->
<g id="node48" class="node">
<title>47</title>
<polygon fill="lightyellow" stroke="transparent" points="86,-32 18,-32 18,0 86,0 86,-32"/>
<polygon fill="none" stroke="black" points="18,0 18,-32 86,-32 86,0 18,0"/>
<text text-anchor="start" x="23" y="-19" font-family="Linux libertine" font-size="10.00">output&#45;tensor</text>
<text text-anchor="start" x="35.5" y="-8" font-family="Linux libertine" font-size="10.00">depth:0</text>
</g>
<!-- 46&#45;&gt;47 -->
<g id="edge47" class="edge">
<title>46&#45;&gt;47</title>
<path fill="none" stroke="black" d="M52,-67.69C52,-60.2 52,-50.97 52,-42.45"/>
<polygon fill="black" stroke="black" points="55.5,-42.22 52,-32.22 48.5,-42.22 55.5,-42.22"/>
</g>
</g>
</svg>
